<?xml version="1.0" encoding="iso-8859-1"?>
<!DOCTYPE svg PUBLIC "-//W3C//DTD SVG 1.1//EN" "http://www.w3.org/Graphics/SVG/1.1/DTD/svg11.dtd">
<svg 
 version="1.1" xmlns="http://www.w3.org/2000/svg" xmlns:xlink="http://www.w3.org/1999/xlink" x="0px" y="0px" width="512px"
	 height="512px" viewBox="0 0 512 512" enable-background="new 0 0 512 512" xml:space="preserve"
><g id="e6c6b53d3c8160b22dad35a0f70b19d0"><g></g><path display="inline" d="M460.4,225.34H51.6c-22.484,0-37.023,17.987-32.313,39.97L63.473,471.53
		c4.711,21.981,26.963,39.97,49.447,39.97h286.16c22.484,0,44.736-17.988,49.447-39.97l44.186-206.221
		C497.424,243.327,482.884,225.34,460.4,225.34z M141.967,446.168c-1.597,0.431-3.204,0.635-4.783,0.635
		c-8.118,0-15.55-5.413-17.755-13.629l-26.724-99.525c-2.635-9.813,3.184-19.901,12.997-22.536
		c9.809-2.646,19.905,3.182,22.538,12.994l26.724,99.525C157.599,433.444,151.78,443.533,141.967,446.168z M220.775,447.198
		c-1.084,0.195-2.164,0.287-3.229,0.287c-8.753,0-16.512-6.271-18.093-15.19l-17.869-100.891
		c-1.771-10.004,4.902-19.554,14.907-21.322c9.982-1.805,19.547,4.898,21.322,14.903l17.869,100.891
		C237.452,435.88,230.779,445.43,220.775,447.198z M330.414,331.404l-17.869,100.891c-1.576,8.919-9.337,15.19-18.092,15.19
		c-1.066,0-2.145-0.092-3.23-0.287c-10.004-1.769-16.675-11.318-14.902-21.322l17.869-100.891
		c1.769-10.005,11.33-16.691,21.322-14.903C325.516,311.851,332.187,321.4,330.414,331.404z M419.293,333.648l-26.725,99.525
		c-2.203,8.216-9.637,13.629-17.753,13.629c-1.581,0-3.186-0.204-4.782-0.635c-9.813-2.635-15.63-12.724-12.995-22.536
		l26.724-99.525c2.631-9.816,12.735-15.649,22.536-12.994C416.11,313.747,421.928,323.835,419.293,333.648z M165.569,90.436
		c6.775-9.032,19.586-10.861,28.616-4.088l49.056,36.792V20.94c0-11.288,9.152-20.44,20.439-20.44c11.29,0,20.44,9.152,20.44,20.44
		v102.2l49.056-36.792c9.034-6.771,21.846-4.94,28.616,4.088c6.774,9.03,4.942,21.843-4.088,28.616l-81.76,61.32
		c-0.096,0.072-0.2,0.118-0.296,0.188c-0.614,0.443-1.27,0.838-1.937,1.216c-0.259,0.147-0.507,0.323-0.77,0.457
		c-0.044,0.022-0.08,0.05-0.12,0.07c-0.822,0.409-1.661,0.745-2.516,1.036c-0.287,0.1-0.574,0.171-0.866,0.257
		c-0.662,0.196-1.329,0.357-2.004,0.483c-0.312,0.058-0.618,0.118-0.926,0.162c-0.895,0.125-1.793,0.206-2.687,0.211
		c-0.044,0-0.084,0.01-0.128,0.01c-0.979,0-1.948-0.094-2.915-0.233c-0.259-0.038-0.515-0.086-0.774-0.132
		c-0.784-0.144-1.561-0.331-2.325-0.567c-0.186-0.056-0.373-0.1-0.557-0.162c-0.935-0.317-1.847-0.703-2.733-1.154
		c-0.158-0.08-0.307-0.176-0.463-0.261c-0.749-0.405-1.469-0.86-2.166-1.363c-0.112-0.08-0.237-0.134-0.347-0.218l-81.76-61.32
		C160.626,112.279,158.796,99.466,165.569,90.436z"></path></g></svg>