<?xml version="1.0" encoding="iso-8859-1"?>
<!DOCTYPE svg PUBLIC "-//W3C//DTD SVG 1.1//EN" "http://www.w3.org/Graphics/SVG/1.1/DTD/svg11.dtd">
<svg 
 version="1.1" xmlns="http://www.w3.org/2000/svg" xmlns:xlink="http://www.w3.org/1999/xlink" x="0px" y="0px" width="512px"
	 height="512px" viewBox="0 0 512 512" enable-background="new 0 0 512 512" xml:space="preserve"
><g id="e6c6b53d3c8160b22dad35a0f70b281f"><g></g><path display="inline" d="M460.402,225.336H51.598c-22.484,0-37.024,17.987-32.313,39.97L63.47,471.529
		c4.711,21.981,26.964,39.971,49.448,39.971h286.164c22.484,0,44.736-17.989,49.447-39.971l44.187-206.223
		C497.427,243.323,482.887,225.336,460.402,225.336z M141.966,446.167c-1.597,0.431-3.204,0.635-4.783,0.635
		c-8.118,0-15.55-5.414-17.755-13.63l-26.724-99.526c-2.635-9.813,3.184-19.901,12.997-22.536
		c9.809-2.646,19.905,3.182,22.538,12.995l26.724,99.526C157.597,433.443,151.779,443.532,141.966,446.167z M220.774,447.197
		c-1.084,0.195-2.164,0.287-3.229,0.287c-8.753,0-16.512-6.271-18.093-15.19l-17.87-100.892
		c-1.771-10.005,4.903-19.555,14.907-21.323c9.982-1.804,19.548,4.898,21.323,14.903l17.869,100.892
		C237.452,435.879,230.779,445.429,220.774,447.197z M330.415,331.402l-17.869,100.892c-1.577,8.919-9.338,15.19-18.093,15.19
		c-1.065,0-2.144-0.092-3.229-0.287c-10.005-1.769-16.676-11.318-14.903-21.323l17.869-100.892
		c1.769-10.005,11.33-16.691,21.323-14.903C325.517,311.848,332.188,321.397,330.415,331.402z M419.295,333.646l-26.725,99.526
		c-2.203,8.216-9.637,13.63-17.753,13.63c-1.581,0-3.187-0.204-4.783-0.635c-9.813-2.635-15.63-12.724-12.994-22.536l26.724-99.526
		c2.631-9.817,12.735-15.65,22.536-12.995C416.112,313.744,421.93,323.833,419.295,333.646z M165.568,94.519
		c-6.773-9.03-4.942-21.844,4.088-28.616l81.761-61.321c0.082-0.062,0.176-0.096,0.26-0.156c0.902-0.657,1.847-1.266,2.864-1.774
		c0.082-0.04,0.168-0.064,0.25-0.104c0.237-0.116,0.484-0.196,0.727-0.301c0.884-0.387,1.782-0.707,2.698-0.962
		c0.331-0.092,0.66-0.184,0.996-0.257c1.1-0.248,2.21-0.427,3.327-0.491c0.048-0.002,0.096-0.014,0.144-0.016
		c1.174-0.058,2.344,0.018,3.506,0.162c0.312,0.04,0.61,0.096,0.918,0.147c0.918,0.156,1.824,0.375,2.719,0.657
		c0.264,0.084,0.527,0.148,0.79,0.242c1.078,0.389,2.132,0.866,3.146,1.443c0.255,0.144,0.491,0.321,0.738,0.477
		c0.487,0.305,0.982,0.586,1.445,0.934l81.761,61.321c9.03,6.772,10.863,19.586,4.088,28.616
		c-6.771,9.028-19.581,10.865-28.616,4.088l-49.057-36.792v102.202c0,11.288-9.15,20.44-20.44,20.44
		c-11.287,0-20.439-9.152-20.439-20.44V61.814l-49.057,36.792c-3.677,2.757-7.98,4.09-12.248,4.09
		C175.72,102.697,169.584,99.872,165.568,94.519z"></path></g></svg>